<svg version="1.0" preserveAspectRatio="xMidYMid meet" height="566" viewBox="0 0 458.88 424.499987" zoomAndPan="magnify" width="612" xmlns="http://www.w3.org/2000/svg"><defs><filter id="20c4e8ad06" height="100%" width="100%" y="0%" x="0%"><feColorMatrix color-interpolation-filters="sRGB" values="0 0 0 0 1 0 0 0 0 1 0 0 0 0 1 0 0 0 1 0"></feColorMatrix></filter><filter id="69b9b9715c" height="100%" width="100%" y="0%" x="0%"><feColorMatrix color-interpolation-filters="sRGB" values="0 0 0 0 1 0 0 0 0 1 0 0 0 0 1 0.2126 0.7152 0.0722 0 0"></feColorMatrix></filter><g></g><clipPath id="9e4f9ab117"><path clip-rule="nonzero" d="M 0.210938 0 L 458.550781 0 L 458.550781 424 L 0.210938 424 Z M 0.210938 0"></path></clipPath><clipPath id="35c0701da2"><path clip-rule="nonzero" d="M 376 37 L 458 37 L 458 69.746094 L 376 69.746094 Z M 376 37"></path></clipPath><mask id="d5e3053cd4"><g filter="url(#20c4e8ad06)"><g transform="matrix(0.0950438, 0, 0, 0.0944446, 375.740053, 36.784601)" filter="url(#69b9b9715c)"><image preserveAspectRatio="xMidYMid meet" height="349" width="867" y="0" x="0"></image></g></g></mask><clipPath id="c7b40d6310"><path clip-rule="nonzero" d="M 376 93 L 458.550781 93 L 458.550781 121.898438 L 376 121.898438 Z M 376 93"></path></clipPath><mask id="6504bd0bd1"><g filter="url(#20c4e8ad06)"><g transform="matrix(0.129722, 0, 0, 0.129847, 375.615805, 92.683651)" filter="url(#69b9b9715c)"><image preserveAspectRatio="xMidYMid meet" height="225" width="641" y="0" x="0"></image></g></g></mask><clipPath id="db80b1a38d"><path clip-rule="nonzero" d="M 377.328125 120 L 456.734375 120 L 456.734375 198.925781 L 377.328125 198.925781 Z M 377.328125 120"></path></clipPath><mask id="e67a9c42d1"><g filter="url(#20c4e8ad06)"><g transform="matrix(0.167878, 0, 0, 0.167878, 377.32619, 119.517733)" filter="url(#69b9b9715c)"><image preserveAspectRatio="xMidYMid meet" height="473" width="473" y="0" x="0"></image></g></g></mask><clipPath id="a5b15f6adf"><path clip-rule="nonzero" d="M 142 42 L 221 42 L 221 65.773438 L 142 65.773438 Z M 142 42"></path></clipPath><mask id="39b15644ce"><g filter="url(#20c4e8ad06)"><g transform="matrix(0.214612, 0, 0, 0.206653, 141.95147, 41.803001)" filter="url(#69b9b9715c)"><image preserveAspectRatio="xMidYMid meet" height="116" width="370" y="0" x="0"></image></g></g></mask><clipPath id="3fc0d6c3a9"><path clip-rule="nonzero" d="M 138.253906 142 L 225 142 L 225 178.503906 L 138.253906 178.503906 Z M 138.253906 142"></path></clipPath><mask id="87ed42edee"><g filter="url(#20c4e8ad06)"><g transform="matrix(0.111407, 0, 0, 0.112253, 138.252349, 141.798626)" filter="url(#69b9b9715c)"><image preserveAspectRatio="xMidYMid meet" height="327" width="780" y="0" x="0"></image></g></g></mask><clipPath id="388248ff73"><path clip-rule="nonzero" d="M 21.164062 142.304688 L 107 142.304688 L 107 177.511719 L 21.164062 177.511719 Z M 21.164062 142.304688"></path></clipPath><mask id="f01b5af111"><g filter="url(#20c4e8ad06)"><g transform="matrix(0.239968, 0, 0, 0.239514, 21.163812, 142.302905)" filter="url(#69b9b9715c)"><image preserveAspectRatio="xMidYMid meet" height="147" width="359" y="0" x="0"></image></g></g></mask><clipPath id="b433fb7bd8"><path clip-rule="nonzero" d="M 130 86 L 233.6875 86 L 233.6875 126 L 130 126 Z M 130 86"></path></clipPath><mask id="9ea9248f1c"><g filter="url(#20c4e8ad06)"><g transform="matrix(0.239925, 0, 0, 0.239363, 129.560288, 85.564856)" filter="url(#69b9b9715c)"><image preserveAspectRatio="xMidYMid meet" height="169" width="434" y="0" x="0"></image></g></g></mask><clipPath id="41e908fdf3"><path clip-rule="nonzero" d="M 24 95.269531 L 105 95.269531 L 105 120.742188 L 24 120.742188 Z M 24 95.269531"></path></clipPath><mask id="4864d75ac0"><g filter="url(#20c4e8ad06)"><g transform="matrix(0.167323, 0, 0, 0.16539, 23.563528, 95.270632)" filter="url(#69b9b9715c)"><image preserveAspectRatio="xMidYMid meet" height="154" width="488" y="0" x="0"></image></g></g></mask><clipPath id="6e16f1d4c3"><path clip-rule="nonzero" d="M 17.167969 35.265625 L 111.558594 35.265625 L 111.558594 76 L 17.167969 76 Z M 17.167969 35.265625"></path></clipPath><mask id="514b1bc83e"><g filter="url(#20c4e8ad06)"><g transform="matrix(0.239566, 0, 0, 0.243796, 17.168705, 35.263676)" filter="url(#69b9b9715c)"><image preserveAspectRatio="xMidYMid meet" height="169" width="394" y="0" x="0"></image></g></g></mask><clipPath id="098a691d42"><path clip-rule="nonzero" d="M 251.230469 145 L 342.621094 145 L 342.621094 174.796875 L 251.230469 174.796875 Z M 251.230469 145"></path></clipPath><mask id="3ae89c7143"><g filter="url(#20c4e8ad06)"><g transform="matrix(0.162043, 0, 0, 0.158543, 251.229685, 144.831646)" filter="url(#69b9b9715c)"><image preserveAspectRatio="xMidYMid meet" height="189" width="564" y="0" x="0"></image></g></g></mask><clipPath id="55b7cb281c"><path clip-rule="nonzero" d="M 255.222656 38 L 339 38 L 339 69.792969 L 255.222656 69.792969 Z M 255.222656 38"></path></clipPath><mask id="38de7876ff"><g filter="url(#20c4e8ad06)"><g transform="matrix(0.204637, 0, 0, 0.202592, 255.220756, 37.581561)" filter="url(#69b9b9715c)"><image preserveAspectRatio="xMidYMid meet" height="159" width="410" y="0" x="0"></image></g></g></mask><mask id="5d038b3631"><g filter="url(#20c4e8ad06)"><g transform="matrix(0.239792, 0, 0, 0.243796, 248.619479, 85.001604)" filter="url(#69b9b9715c)"><image preserveAspectRatio="xMidYMid meet" height="169" width="403" y="0" x="0"></image></g></g></mask><clipPath id="fe36e01252"><path clip-rule="nonzero" d="M 17.167969 310 L 108.5625 310 L 108.5625 345.765625 L 17.167969 345.765625 Z M 17.167969 310"></path></clipPath><mask id="e5313118a5"><g filter="url(#20c4e8ad06)"><g transform="matrix(0.239875, 0, 0, 0.24461, 17.168705, 309.808116)" filter="url(#69b9b9715c)"><image preserveAspectRatio="xMidYMid meet" height="147" width="381" y="0" x="0"></image></g></g></mask><clipPath id="044456f790"><path clip-rule="nonzero" d="M 17.167969 221.394531 L 81.59375 221.394531 L 81.59375 272.335938 L 17.167969 272.335938 Z M 17.167969 221.394531"></path></clipPath><clipPath id="4b02433acf"><path clip-rule="nonzero" d="M 98 224.335938 L 142 224.335938 L 142 269 L 98 269 Z M 98 224.335938"></path></clipPath><clipPath id="290f6a5b7c"><path clip-rule="nonzero" d="M 0.210938 367 L 81 367 L 81 424 L 0.210938 424 Z M 0.210938 367"></path></clipPath><clipPath id="c14bd122d5"><path clip-rule="nonzero" d="M 0.210938 0.472656 L 79.664062 0.472656 L 79.664062 56.3125 L 0.210938 56.3125 Z M 0.210938 0.472656"></path></clipPath><clipPath id="2a94d6f6c0"><path clip-rule="nonzero" d="M 0.210938 0.472656 L 79.664062 0.472656 L 79.664062 56.3125 L 0.210938 56.3125 Z M 0.210938 0.472656"></path></clipPath><clipPath id="7c6f0bf7e0"><rect height="57" y="0" width="80" x="0"></rect></clipPath><clipPath id="5eadb12bef"><path clip-rule="nonzero" d="M 13 0.472656 L 67 0.472656 L 67 55.917969 L 13 55.917969 Z M 13 0.472656"></path></clipPath><clipPath id="30080db648"><rect height="57" y="0" width="81" x="0"></rect></clipPath></defs><g clip-path="url(#9e4f9ab117)"><path fill-rule="nonzero" fill-opacity="1" d="M 0.210938 0 L 458.671875 0 L 458.671875 424 L 0.210938 424 Z M 0.210938 0" fill="#ffffff"></path></g><g clip-path="url(#35c0701da2)"><g mask="url(#d5e3053cd4)"><g transform="matrix(0.0950438, 0, 0, 0.0944446, 375.740053, 36.784601)"><image preserveAspectRatio="xMidYMid meet" height="349" width="867" y="0" x="0"></image></g></g></g><g clip-path="url(#c7b40d6310)"><g mask="url(#6504bd0bd1)"><g transform="matrix(0.129722, 0, 0, 0.129847, 375.615805, 92.683651)"><image preserveAspectRatio="xMidYMid meet" height="225" width="641" y="0" x="0"></image></g></g></g><g clip-path="url(#db80b1a38d)"><g mask="url(#e67a9c42d1)"><g transform="matrix(0.167878, 0, 0, 0.167878, 377.32619, 119.517733)"><image preserveAspectRatio="xMidYMid meet" height="473" width="473" y="0" x="0"></image></g></g></g><g clip-path="url(#a5b15f6adf)"><g mask="url(#39b15644ce)"><g transform="matrix(0.214612, 0, 0, 0.206653, 141.95147, 41.803001)"><image preserveAspectRatio="xMidYMid meet" height="116" width="370" y="0" x="0"></image></g></g></g><g clip-path="url(#3fc0d6c3a9)"><g mask="url(#87ed42edee)"><g transform="matrix(0.111407, 0, 0, 0.112253, 138.252349, 141.798626)"><image preserveAspectRatio="xMidYMid meet" height="327" width="780" y="0" x="0"></image></g></g></g><g clip-path="url(#388248ff73)"><g mask="url(#f01b5af111)"><g transform="matrix(0.239968, 0, 0, 0.239514, 21.163812, 142.302905)"><image preserveAspectRatio="xMidYMid meet" height="147" width="359" y="0" x="0"></image></g></g></g><g clip-path="url(#b433fb7bd8)"><g mask="url(#9ea9248f1c)"><g transform="matrix(0.239925, 0, 0, 0.239363, 129.560288, 85.564856)"><image preserveAspectRatio="xMidYMid meet" height="169" width="434" y="0" x="0"></image></g></g></g><g clip-path="url(#41e908fdf3)"><g mask="url(#4864d75ac0)"><g transform="matrix(0.167323, 0, 0, 0.16539, 23.563528, 95.270632)"><image preserveAspectRatio="xMidYMid meet" height="154" width="488" y="0" x="0"></image></g></g></g><g clip-path="url(#6e16f1d4c3)"><g mask="url(#514b1bc83e)"><g transform="matrix(0.239566, 0, 0, 0.243796, 17.168705, 35.263676)"><image preserveAspectRatio="xMidYMid meet" height="169" width="394" y="0" x="0"></image></g></g></g><g clip-path="url(#098a691d42)"><g mask="url(#3ae89c7143)"><g transform="matrix(0.162043, 0, 0, 0.158543, 251.229685, 144.831646)"><image preserveAspectRatio="xMidYMid meet" height="189" width="564" y="0" x="0"></image></g></g></g><g clip-path="url(#55b7cb281c)"><g mask="url(#38de7876ff)"><g transform="matrix(0.204637, 0, 0, 0.202592, 255.220756, 37.581561)"><image preserveAspectRatio="xMidYMid meet" height="159" width="410" y="0" x="0"></image></g></g></g><g mask="url(#5d038b3631)"><g transform="matrix(0.239792, 0, 0, 0.243796, 248.619479, 85.001604)"><image preserveAspectRatio="xMidYMid meet" height="169" width="403" y="0" x="0"></image></g></g><g clip-path="url(#fe36e01252)"><g mask="url(#e5313118a5)"><g transform="matrix(0.239875, 0, 0, 0.24461, 17.168705, 309.808116)"><image preserveAspectRatio="xMidYMid meet" height="147" width="381" y="0" x="0"></image></g></g></g><g clip-path="url(#044456f790)"><g transform="matrix(0.159812, 0, 0, 0.159187, -0.57965, 217.177031)"><image preserveAspectRatio="xMidYMid meet" height="400" width="600" y="0" x="0"></image></g></g><g clip-path="url(#4b02433acf)"><g transform="matrix(0.294653, 0, 0, 0.291864, 97.859671, 224.33588)"><image preserveAspectRatio="xMidYMid meet" height="154" width="150" y="0" x="0"></image></g></g><g fill-opacity="1" fill="#a61e2f"><g transform="translate(17.168705, 21.362806)"><g><path d="M 7.84375 -6.984375 L 3.402344 -6.984375 L 3.402344 -11.375 L 1.039062 -11.375 L 1.039062 0 L 3.402344 0 L 3.402344 -4.875 L 7.84375 -4.875 L 7.84375 0 L 10.210938 0 L 10.210938 -11.375 L 7.84375 -11.375 Z M 7.84375 -6.984375"></path></g></g></g><g fill-opacity="1" fill="#a61e2f"><g transform="translate(28.304891, 21.362806)"><g><path d="M 5.929688 0.367188 C 8.964844 0.367188 11.359375 -2.011719 11.359375 -5.703125 C 11.359375 -9.378906 8.964844 -11.648438 5.929688 -11.648438 C 2.890625 -11.648438 0.558594 -9.378906 0.558594 -5.703125 C 0.558594 -1.996094 2.890625 0.367188 5.929688 0.367188 Z M 5.929688 -1.679688 C 4.058594 -1.679688 2.925781 -3.292969 2.925781 -5.703125 C 2.925781 -8.019531 4.058594 -9.601562 5.929688 -9.601562 C 7.796875 -9.601562 8.996094 -8.039062 8.996094 -5.703125 C 8.996094 -3.292969 7.796875 -1.679688 5.929688 -1.679688 Z M 5.929688 -1.679688"></path></g></g></g><g fill-opacity="1" fill="#a61e2f"><g transform="translate(40.112123, 21.362806)"><g><path d="M 5.449219 0.367188 C 8.261719 0.367188 9.96875 -1.007812 9.96875 -3.210938 C 9.96875 -5.113281 8.644531 -6.054688 6.871094 -6.488281 L 4.601562 -7.046875 C 3.722656 -7.269531 3.277344 -7.703125 3.277344 -8.324219 C 3.277344 -9.09375 3.945312 -9.699219 5.160156 -9.699219 C 6.40625 -9.699219 7.335938 -9.042969 7.476562 -7.894531 L 9.777344 -7.894531 C 9.636719 -10.128906 7.894531 -11.632812 5.144531 -11.632812 C 2.222656 -11.632812 0.894531 -9.890625 0.894531 -8.070312 C 0.894531 -6.472656 1.917969 -5.351562 3.691406 -4.90625 L 5.785156 -4.378906 C 6.871094 -4.105469 7.527344 -3.804688 7.527344 -2.988281 C 7.527344 -2.09375 6.726562 -1.566406 5.433594 -1.566406 C 3.929688 -1.566406 3.003906 -2.269531 2.941406 -3.53125 L 0.625 -3.53125 C 0.6875 -1.070312 2.554688 0.367188 5.449219 0.367188 Z M 5.449219 0.367188"></path></g></g></g><g fill-opacity="1" fill="#a61e2f"><g transform="translate(50.593243, 21.362806)"><g></g></g></g><g fill-opacity="1" fill="#a61e2f"><g transform="translate(54.475712, 21.362806)"><g><path d="M 7.863281 -6.390625 C 7.863281 -5.59375 7.878906 -4.777344 7.894531 -3.980469 C 7.527344 -4.617188 7.140625 -5.242188 6.742188 -5.878906 L 3.355469 -11.375 L 1.039062 -11.375 L 1.039062 0 L 3.402344 0 L 3.402344 -4.984375 C 3.402344 -5.769531 3.402344 -6.582031 3.386719 -7.382812 C 3.785156 -6.710938 4.1875 -6.039062 4.601562 -5.367188 L 7.910156 0 L 10.226562 0 L 10.226562 -11.375 L 7.863281 -11.375 Z M 7.863281 -6.390625"></path></g></g></g><g fill-opacity="1" fill="#a61e2f"><g transform="translate(65.627878, 21.362806)"><g><path d="M 8.804688 -3.835938 C 8.804688 -6.726562 7.015625 -8.453125 4.570312 -8.453125 C 2.046875 -8.453125 0.511719 -6.566406 0.511719 -4.15625 C 0.511719 -1.628906 2.078125 0.273438 4.808594 0.273438 C 6.664062 0.273438 8.039062 -0.589844 8.597656 -2.378906 L 6.359375 -2.539062 C 6.085938 -1.820312 5.542969 -1.46875 4.761719 -1.46875 C 3.644531 -1.46875 2.925781 -2.203125 2.828125 -3.453125 L 8.804688 -3.453125 Z M 4.648438 -6.808594 C 5.671875 -6.808594 6.34375 -6.136719 6.472656 -4.984375 L 2.8125 -4.984375 C 2.925781 -6.121094 3.628906 -6.808594 4.648438 -6.808594 Z M 4.648438 -6.808594"></path></g></g></g><g fill-opacity="1" fill="#a61e2f"><g transform="translate(74.830802, 21.362806)"><g><path d="M 5.144531 -6.582031 L 5.144531 -8.246094 L 3.609375 -8.195312 L 3.609375 -10.785156 L 1.359375 -10.785156 L 1.359375 -8.214844 L 0.238281 -8.246094 L 0.238281 -6.582031 L 1.359375 -6.632812 L 1.359375 -2.316406 C 1.359375 -0.65625 2.011719 0 3.675781 0 L 5.144531 0 L 5.144531 -1.804688 L 4.394531 -1.804688 C 3.835938 -1.804688 3.609375 -2.027344 3.609375 -2.589844 L 3.609375 -6.632812 Z M 5.144531 -6.582031"></path></g></g></g><g fill-opacity="1" fill="#a61e2f"><g transform="translate(80.183193, 21.362806)"><g><path d="M 8.898438 -4.585938 L 8.515625 -2.507812 L 8.132812 -4.617188 L 7.207031 -8.246094 L 5.210938 -8.246094 L 4.28125 -4.585938 L 3.898438 -2.507812 L 3.515625 -4.585938 L 2.605469 -8.246094 L 0.238281 -8.246094 L 2.683594 0 L 4.824219 0 L 6.007812 -4.585938 L 6.214844 -5.671875 L 6.40625 -4.585938 L 7.589844 0 L 9.730469 0 L 12.175781 -8.246094 L 9.8125 -8.246094 Z M 8.898438 -4.585938"></path></g></g></g><g fill-opacity="1" fill="#a61e2f"><g transform="translate(92.485726, 21.362806)"><g><path d="M 4.730469 0.273438 C 7.207031 0.273438 8.949219 -1.597656 8.949219 -4.089844 C 8.949219 -6.582031 7.207031 -8.453125 4.730469 -8.453125 C 2.253906 -8.453125 0.511719 -6.582031 0.511719 -4.089844 C 0.511719 -1.597656 2.253906 0.273438 4.730469 0.273438 Z M 4.730469 -1.484375 C 3.46875 -1.484375 2.683594 -2.507812 2.683594 -4.089844 C 2.683594 -5.671875 3.46875 -6.695312 4.730469 -6.695312 C 5.992188 -6.695312 6.773438 -5.671875 6.773438 -4.089844 C 6.773438 -2.507812 5.992188 -1.484375 4.730469 -1.484375 Z M 4.730469 -1.484375"></path></g></g></g><g fill-opacity="1" fill="#a61e2f"><g transform="translate(101.832447, 21.362806)"><g><path d="M 5.082031 -8.46875 C 4.171875 -8.46875 3.5 -7.988281 3.132812 -7.109375 L 3.164062 -8.246094 L 0.957031 -8.246094 L 0.957031 0 L 3.210938 0 L 3.210938 -4.011719 C 3.210938 -5.609375 3.882812 -6.390625 5.257812 -6.390625 C 5.417969 -6.390625 5.5625 -6.375 5.71875 -6.359375 L 5.71875 -8.40625 C 5.496094 -8.453125 5.273438 -8.46875 5.082031 -8.46875 Z M 5.082031 -8.46875"></path></g></g></g><g fill-opacity="1" fill="#a61e2f"><g transform="translate(107.760016, 21.362806)"><g><path d="M 8.835938 -8.246094 L 6.007812 -8.246094 L 4.171875 -6.199219 L 3.148438 -4.921875 L 3.210938 -6.824219 L 3.210938 -11.375 L 0.957031 -11.375 L 0.957031 0 L 3.210938 0 L 3.210938 -2.730469 L 4.074219 -3.628906 L 4.648438 -2.574219 L 6.230469 0 L 8.898438 0 L 5.625 -5 Z M 8.835938 -8.246094"></path></g></g></g><g fill-opacity="1" fill="#a61e2f"><g transform="translate(116.787194, 21.362806)"><g></g></g></g><g fill-opacity="1" fill="#a61e2f"><g transform="translate(120.669664, 21.362806)"><g><path d="M 7.109375 -4.699219 L 6.597656 -2.429688 L 6.136719 -4.699219 L 4.363281 -11.375 L 1.039062 -11.375 L 1.039062 0 L 3.226562 0 L 3.226562 -4.265625 L 2.957031 -9.84375 L 3.738281 -6.503906 L 5.433594 0 L 7.84375 0 L 9.507812 -6.390625 L 10.289062 -9.828125 L 10.019531 -4.265625 L 10.019531 0 L 12.222656 0 L 12.222656 -11.375 L 8.851562 -11.375 Z M 7.109375 -4.699219"></path></g></g></g><g fill-opacity="1" fill="#a61e2f"><g transform="translate(133.818988, 21.362806)"><g><path d="M 8.804688 -3.835938 C 8.804688 -6.726562 7.015625 -8.453125 4.570312 -8.453125 C 2.046875 -8.453125 0.511719 -6.566406 0.511719 -4.15625 C 0.511719 -1.628906 2.078125 0.273438 4.808594 0.273438 C 6.664062 0.273438 8.039062 -0.589844 8.597656 -2.378906 L 6.359375 -2.539062 C 6.085938 -1.820312 5.542969 -1.46875 4.761719 -1.46875 C 3.644531 -1.46875 2.925781 -2.203125 2.828125 -3.453125 L 8.804688 -3.453125 Z M 4.648438 -6.808594 C 5.671875 -6.808594 6.34375 -6.136719 6.472656 -4.984375 L 2.8125 -4.984375 C 2.925781 -6.121094 3.628906 -6.808594 4.648438 -6.808594 Z M 4.648438 -6.808594"></path></g></g></g><g fill-opacity="1" fill="#a61e2f"><g transform="translate(143.021912, 21.362806)"><g><path d="M 10.226562 -8.453125 C 9.109375 -8.453125 8.324219 -7.972656 7.796875 -6.964844 C 7.429688 -7.894531 6.613281 -8.453125 5.433594 -8.453125 C 4.441406 -8.453125 3.707031 -8.039062 3.195312 -7.191406 L 3.164062 -8.246094 L 0.957031 -8.246094 L 0.957031 0 L 3.210938 0 L 3.210938 -4.410156 C 3.210938 -5.640625 3.804688 -6.421875 4.683594 -6.421875 C 5.464844 -6.421875 5.785156 -5.800781 5.785156 -5.066406 L 5.785156 0 L 8.039062 0 L 8.039062 -4.410156 C 8.039062 -5.640625 8.628906 -6.421875 9.507812 -6.421875 C 10.289062 -6.421875 10.609375 -5.800781 10.609375 -5.066406 L 10.609375 0 L 12.863281 0 L 12.863281 -5.511719 C 12.863281 -7.238281 11.9375 -8.453125 10.226562 -8.453125 Z M 10.226562 -8.453125"></path></g></g></g><g fill-opacity="1" fill="#a61e2f"><g transform="translate(156.730446, 21.362806)"><g><path d="M 5.609375 -8.453125 C 4.554688 -8.453125 3.769531 -8.101562 3.210938 -7.414062 L 3.210938 -11.375 L 0.957031 -11.375 L 0.957031 0 L 2.957031 0 L 3.035156 -1.023438 C 3.59375 -0.160156 4.410156 0.273438 5.433594 0.273438 C 7.511719 0.273438 8.980469 -1.503906 8.980469 -4.15625 C 8.980469 -6.855469 7.476562 -8.453125 5.609375 -8.453125 Z M 4.953125 -1.710938 C 3.867188 -1.710938 3.101562 -2.667969 3.101562 -4.15625 C 3.101562 -5.640625 3.867188 -6.582031 4.953125 -6.582031 C 6.039062 -6.582031 6.808594 -5.65625 6.808594 -4.15625 C 6.808594 -2.636719 6.039062 -1.710938 4.953125 -1.710938 Z M 4.953125 -1.710938"></path></g></g></g><g fill-opacity="1" fill="#a61e2f"><g transform="translate(166.109128, 21.362806)"><g><path d="M 8.804688 -3.835938 C 8.804688 -6.726562 7.015625 -8.453125 4.570312 -8.453125 C 2.046875 -8.453125 0.511719 -6.566406 0.511719 -4.15625 C 0.511719 -1.628906 2.078125 0.273438 4.808594 0.273438 C 6.664062 0.273438 8.039062 -0.589844 8.597656 -2.378906 L 6.359375 -2.539062 C 6.085938 -1.820312 5.542969 -1.46875 4.761719 -1.46875 C 3.644531 -1.46875 2.925781 -2.203125 2.828125 -3.453125 L 8.804688 -3.453125 Z M 4.648438 -6.808594 C 5.671875 -6.808594 6.34375 -6.136719 6.472656 -4.984375 L 2.8125 -4.984375 C 2.925781 -6.121094 3.628906 -6.808594 4.648438 -6.808594 Z M 4.648438 -6.808594"></path></g></g></g><g fill-opacity="1" fill="#a61e2f"><g transform="translate(175.312051, 21.362806)"><g><path d="M 5.082031 -8.46875 C 4.171875 -8.46875 3.5 -7.988281 3.132812 -7.109375 L 3.164062 -8.246094 L 0.957031 -8.246094 L 0.957031 0 L 3.210938 0 L 3.210938 -4.011719 C 3.210938 -5.609375 3.882812 -6.390625 5.257812 -6.390625 C 5.417969 -6.390625 5.5625 -6.375 5.71875 -6.359375 L 5.71875 -8.40625 C 5.496094 -8.453125 5.273438 -8.46875 5.082031 -8.46875 Z M 5.082031 -8.46875"></path></g></g></g><g fill-opacity="1" fill="#a61e2f"><g transform="translate(181.23962, 21.362806)"><g><path d="M 4.410156 0.304688 C 6.632812 0.304688 8.070312 -0.703125 8.070312 -2.445312 C 8.070312 -3.722656 7.300781 -4.472656 5.65625 -4.808594 L 3.882812 -5.175781 C 3.292969 -5.304688 2.957031 -5.578125 2.957031 -6.007812 C 2.957031 -6.535156 3.433594 -6.886719 4.1875 -6.886719 C 5.035156 -6.886719 5.640625 -6.457031 5.753906 -5.738281 L 7.78125 -5.816406 C 7.574219 -7.429688 6.214844 -8.453125 4.21875 -8.453125 C 2.1875 -8.453125 0.863281 -7.398438 0.863281 -5.738281 C 0.863281 -4.472656 1.644531 -3.644531 3.257812 -3.324219 L 4.890625 -3.003906 C 5.640625 -2.859375 5.976562 -2.621094 5.976562 -2.171875 C 5.976562 -1.550781 5.335938 -1.261719 4.488281 -1.261719 C 3.417969 -1.261719 2.859375 -1.726562 2.730469 -2.539062 L 0.671875 -2.460938 C 0.878906 -0.703125 2.15625 0.304688 4.410156 0.304688 Z M 4.410156 0.304688"></path></g></g></g><g fill-opacity="1" fill="#a61e2f"><g transform="translate(17.168705, 214.057631)"><g><path d="M 10.816406 -6.152344 L 6.070312 -6.152344 L 6.070312 -4.171875 L 8.773438 -4.171875 C 8.53125 -2.507812 7.398438 -1.679688 5.992188 -1.679688 C 4.027344 -1.679688 2.925781 -3.292969 2.925781 -5.6875 C 2.925781 -8.019531 4.011719 -9.601562 5.992188 -9.601562 C 7.382812 -9.601562 8.214844 -8.835938 8.421875 -7.636719 L 10.738281 -7.78125 C 10.355469 -10.179688 8.675781 -11.648438 5.863281 -11.648438 C 2.828125 -11.648438 0.558594 -9.378906 0.558594 -5.6875 C 0.558594 -1.996094 2.859375 0.367188 5.738281 0.367188 C 7.253906 0.367188 8.339844 -0.304688 8.917969 -1.214844 L 9.285156 0 L 10.816406 0 Z M 10.816406 -6.152344"></path></g></g></g><g fill-opacity="1" fill="#a61e2f"><g transform="translate(28.912029, 214.057631)"><g><path d="M 3.210938 0 L 3.210938 -11.375 L 0.957031 -11.375 L 0.957031 0 Z M 3.210938 0"></path></g></g></g><g fill-opacity="1" fill="#a61e2f"><g transform="translate(32.970256, 214.057631)"><g><path d="M 4.730469 0.273438 C 7.207031 0.273438 8.949219 -1.597656 8.949219 -4.089844 C 8.949219 -6.582031 7.207031 -8.453125 4.730469 -8.453125 C 2.253906 -8.453125 0.511719 -6.582031 0.511719 -4.089844 C 0.511719 -1.597656 2.253906 0.273438 4.730469 0.273438 Z M 4.730469 -1.484375 C 3.46875 -1.484375 2.683594 -2.507812 2.683594 -4.089844 C 2.683594 -5.671875 3.46875 -6.695312 4.730469 -6.695312 C 5.992188 -6.695312 6.773438 -5.671875 6.773438 -4.089844 C 6.773438 -2.507812 5.992188 -1.484375 4.730469 -1.484375 Z M 4.730469 -1.484375"></path></g></g></g><g fill-opacity="1" fill="#a61e2f"><g transform="translate(42.316977, 214.057631)"><g><path d="M 5.609375 -8.453125 C 4.554688 -8.453125 3.769531 -8.101562 3.210938 -7.414062 L 3.210938 -11.375 L 0.957031 -11.375 L 0.957031 0 L 2.957031 0 L 3.035156 -1.023438 C 3.59375 -0.160156 4.410156 0.273438 5.433594 0.273438 C 7.511719 0.273438 8.980469 -1.503906 8.980469 -4.15625 C 8.980469 -6.855469 7.476562 -8.453125 5.609375 -8.453125 Z M 4.953125 -1.710938 C 3.867188 -1.710938 3.101562 -2.667969 3.101562 -4.15625 C 3.101562 -5.640625 3.867188 -6.582031 4.953125 -6.582031 C 6.039062 -6.582031 6.808594 -5.65625 6.808594 -4.15625 C 6.808594 -2.636719 6.039062 -1.710938 4.953125 -1.710938 Z M 4.953125 -1.710938"></path></g></g></g><g fill-opacity="1" fill="#a61e2f"><g transform="translate(51.695658, 214.057631)"><g><path d="M 8.261719 0 C 8.019531 -0.414062 7.941406 -0.957031 7.941406 -1.726562 L 7.941406 -5.367188 C 7.941406 -7.398438 6.742188 -8.4375 4.378906 -8.4375 C 2.15625 -8.4375 1.023438 -7.589844 0.863281 -5.785156 L 2.925781 -5.753906 C 3.035156 -6.519531 3.46875 -6.839844 4.394531 -6.839844 C 5.289062 -6.839844 5.785156 -6.550781 5.785156 -5.945312 L 5.785156 -5.335938 L 2.90625 -4.761719 C 1.246094 -4.425781 0.398438 -3.578125 0.398438 -2.269531 C 0.398438 -0.765625 1.519531 0.238281 3.257812 0.238281 C 4.347656 0.238281 5.242188 -0.160156 5.800781 -0.832031 C 5.847656 -0.542969 5.914062 -0.289062 5.976562 0 Z M 3.898438 -1.421875 C 3.066406 -1.421875 2.605469 -1.820312 2.605469 -2.414062 C 2.605469 -2.957031 2.988281 -3.308594 3.675781 -3.453125 L 5.785156 -3.898438 L 5.785156 -3.292969 C 5.785156 -2.078125 4.96875 -1.421875 3.898438 -1.421875 Z M 3.898438 -1.421875"></path></g></g></g><g fill-opacity="1" fill="#a61e2f"><g transform="translate(60.48317, 214.057631)"><g><path d="M 3.210938 0 L 3.210938 -11.375 L 0.957031 -11.375 L 0.957031 0 Z M 3.210938 0"></path></g></g></g><g fill-opacity="1" fill="#a61e2f"><g transform="translate(64.541397, 214.057631)"><g></g></g></g><g fill-opacity="1" fill="#a61e2f"><g transform="translate(68.423867, 214.057631)"><g><path d="M 11.089844 0 L 7.160156 -11.375 L 4.425781 -11.375 L 0.398438 0 L 2.90625 0 L 3.675781 -2.363281 L 7.796875 -2.363281 L 8.566406 0 Z M 4.777344 -5.71875 L 5.753906 -8.996094 L 6.710938 -5.71875 L 7.175781 -4.3125 L 4.3125 -4.3125 Z M 4.777344 -5.71875"></path></g></g></g><g fill-opacity="1" fill="#a61e2f"><g transform="translate(79.799707, 214.057631)"><g><path d="M 5.210938 -9.570312 L 5.210938 -11.375 L 4.027344 -11.375 C 2.316406 -11.375 1.390625 -10.449219 1.390625 -8.742188 L 1.390625 -8.195312 L 0.238281 -8.246094 L 0.238281 -6.582031 L 1.390625 -6.632812 L 1.390625 0 L 3.644531 0 L 3.644531 -6.632812 L 5.210938 -6.582031 L 5.210938 -8.246094 L 3.644531 -8.195312 L 3.644531 -8.628906 C 3.644531 -9.269531 3.945312 -9.570312 4.585938 -9.570312 Z M 5.210938 -9.570312"></path></g></g></g><g fill-opacity="1" fill="#a61e2f"><g transform="translate(85.05623, 214.057631)"><g><path d="M 5.210938 -9.570312 L 5.210938 -11.375 L 4.027344 -11.375 C 2.316406 -11.375 1.390625 -10.449219 1.390625 -8.742188 L 1.390625 -8.195312 L 0.238281 -8.246094 L 0.238281 -6.582031 L 1.390625 -6.632812 L 1.390625 0 L 3.644531 0 L 3.644531 -6.632812 L 5.210938 -6.582031 L 5.210938 -8.246094 L 3.644531 -8.195312 L 3.644531 -8.628906 C 3.644531 -9.269531 3.945312 -9.570312 4.585938 -9.570312 Z M 5.210938 -9.570312"></path></g></g></g><g fill-opacity="1" fill="#a61e2f"><g transform="translate(90.312752, 214.057631)"><g><path d="M 3.226562 -9.332031 L 3.226562 -11.375 L 0.976562 -11.375 L 0.976562 -9.332031 Z M 3.210938 0 L 3.210938 -8.246094 L 0.957031 -8.246094 L 0.957031 0 Z M 3.210938 0"></path></g></g></g><g fill-opacity="1" fill="#a61e2f"><g transform="translate(94.370979, 214.057631)"><g><path d="M 3.210938 0 L 3.210938 -11.375 L 0.957031 -11.375 L 0.957031 0 Z M 3.210938 0"></path></g></g></g><g fill-opacity="1" fill="#a61e2f"><g transform="translate(98.429206, 214.057631)"><g><path d="M 3.226562 -9.332031 L 3.226562 -11.375 L 0.976562 -11.375 L 0.976562 -9.332031 Z M 3.210938 0 L 3.210938 -8.246094 L 0.957031 -8.246094 L 0.957031 0 Z M 3.210938 0"></path></g></g></g><g fill-opacity="1" fill="#a61e2f"><g transform="translate(102.487433, 214.057631)"><g><path d="M 8.261719 0 C 8.019531 -0.414062 7.941406 -0.957031 7.941406 -1.726562 L 7.941406 -5.367188 C 7.941406 -7.398438 6.742188 -8.4375 4.378906 -8.4375 C 2.15625 -8.4375 1.023438 -7.589844 0.863281 -5.785156 L 2.925781 -5.753906 C 3.035156 -6.519531 3.46875 -6.839844 4.394531 -6.839844 C 5.289062 -6.839844 5.785156 -6.550781 5.785156 -5.945312 L 5.785156 -5.335938 L 2.90625 -4.761719 C 1.246094 -4.425781 0.398438 -3.578125 0.398438 -2.269531 C 0.398438 -0.765625 1.519531 0.238281 3.257812 0.238281 C 4.347656 0.238281 5.242188 -0.160156 5.800781 -0.832031 C 5.847656 -0.542969 5.914062 -0.289062 5.976562 0 Z M 3.898438 -1.421875 C 3.066406 -1.421875 2.605469 -1.820312 2.605469 -2.414062 C 2.605469 -2.957031 2.988281 -3.308594 3.675781 -3.453125 L 5.785156 -3.898438 L 5.785156 -3.292969 C 5.785156 -2.078125 4.96875 -1.421875 3.898438 -1.421875 Z M 3.898438 -1.421875"></path></g></g></g><g fill-opacity="1" fill="#a61e2f"><g transform="translate(111.274945, 214.057631)"><g><path d="M 5.144531 -6.582031 L 5.144531 -8.246094 L 3.609375 -8.195312 L 3.609375 -10.785156 L 1.359375 -10.785156 L 1.359375 -8.214844 L 0.238281 -8.246094 L 0.238281 -6.582031 L 1.359375 -6.632812 L 1.359375 -2.316406 C 1.359375 -0.65625 2.011719 0 3.675781 0 L 5.144531 0 L 5.144531 -1.804688 L 4.394531 -1.804688 C 3.835938 -1.804688 3.609375 -2.027344 3.609375 -2.589844 L 3.609375 -6.632812 Z M 5.144531 -6.582031"></path></g></g></g><g fill-opacity="1" fill="#a61e2f"><g transform="translate(116.627336, 214.057631)"><g><path d="M 3.226562 -9.332031 L 3.226562 -11.375 L 0.976562 -11.375 L 0.976562 -9.332031 Z M 3.210938 0 L 3.210938 -8.246094 L 0.957031 -8.246094 L 0.957031 0 Z M 3.210938 0"></path></g></g></g><g fill-opacity="1" fill="#a61e2f"><g transform="translate(120.685563, 214.057631)"><g><path d="M 4.730469 0.273438 C 7.207031 0.273438 8.949219 -1.597656 8.949219 -4.089844 C 8.949219 -6.582031 7.207031 -8.453125 4.730469 -8.453125 C 2.253906 -8.453125 0.511719 -6.582031 0.511719 -4.089844 C 0.511719 -1.597656 2.253906 0.273438 4.730469 0.273438 Z M 4.730469 -1.484375 C 3.46875 -1.484375 2.683594 -2.507812 2.683594 -4.089844 C 2.683594 -5.671875 3.46875 -6.695312 4.730469 -6.695312 C 5.992188 -6.695312 6.773438 -5.671875 6.773438 -4.089844 C 6.773438 -2.507812 5.992188 -1.484375 4.730469 -1.484375 Z M 4.730469 -1.484375"></path></g></g></g><g fill-opacity="1" fill="#a61e2f"><g transform="translate(130.032285, 214.057631)"><g><path d="M 5.578125 -8.453125 C 4.523438 -8.453125 3.738281 -8.019531 3.195312 -7.125 L 3.164062 -8.246094 L 0.957031 -8.246094 L 0.957031 0 L 3.210938 0 L 3.210938 -4.410156 C 3.210938 -5.640625 3.867188 -6.421875 4.824219 -6.421875 C 5.625 -6.421875 6.023438 -5.878906 6.023438 -5.015625 L 6.023438 0 L 8.277344 0 L 8.277344 -5.527344 C 8.277344 -7.316406 7.285156 -8.453125 5.578125 -8.453125 Z M 5.578125 -8.453125"></path></g></g></g><g fill-opacity="1" fill="#a61e2f"><g transform="translate(139.155331, 214.057631)"><g><path d="M 4.410156 0.304688 C 6.632812 0.304688 8.070312 -0.703125 8.070312 -2.445312 C 8.070312 -3.722656 7.300781 -4.472656 5.65625 -4.808594 L 3.882812 -5.175781 C 3.292969 -5.304688 2.957031 -5.578125 2.957031 -6.007812 C 2.957031 -6.535156 3.433594 -6.886719 4.1875 -6.886719 C 5.035156 -6.886719 5.640625 -6.457031 5.753906 -5.738281 L 7.78125 -5.816406 C 7.574219 -7.429688 6.214844 -8.453125 4.21875 -8.453125 C 2.1875 -8.453125 0.863281 -7.398438 0.863281 -5.738281 C 0.863281 -4.472656 1.644531 -3.644531 3.257812 -3.324219 L 4.890625 -3.003906 C 5.640625 -2.859375 5.976562 -2.621094 5.976562 -2.171875 C 5.976562 -1.550781 5.335938 -1.261719 4.488281 -1.261719 C 3.417969 -1.261719 2.859375 -1.726562 2.730469 -2.539062 L 0.671875 -2.460938 C 0.878906 -0.703125 2.15625 0.304688 4.410156 0.304688 Z M 4.410156 0.304688"></path></g></g></g><g fill-opacity="1" fill="#a61e2f"><g transform="translate(17.168705, 295.674724)"><g><path d="M 7.84375 -6.984375 L 3.402344 -6.984375 L 3.402344 -11.375 L 1.039062 -11.375 L 1.039062 0 L 3.402344 0 L 3.402344 -4.875 L 7.84375 -4.875 L 7.84375 0 L 10.210938 0 L 10.210938 -11.375 L 7.84375 -11.375 Z M 7.84375 -6.984375"></path></g></g></g><g fill-opacity="1" fill="#a61e2f"><g transform="translate(28.304891, 295.674724)"><g><path d="M 4.730469 0.273438 C 7.207031 0.273438 8.949219 -1.597656 8.949219 -4.089844 C 8.949219 -6.582031 7.207031 -8.453125 4.730469 -8.453125 C 2.253906 -8.453125 0.511719 -6.582031 0.511719 -4.089844 C 0.511719 -1.597656 2.253906 0.273438 4.730469 0.273438 Z M 4.730469 -1.484375 C 3.46875 -1.484375 2.683594 -2.507812 2.683594 -4.089844 C 2.683594 -5.671875 3.46875 -6.695312 4.730469 -6.695312 C 5.992188 -6.695312 6.773438 -5.671875 6.773438 -4.089844 C 6.773438 -2.507812 5.992188 -1.484375 4.730469 -1.484375 Z M 4.730469 -1.484375"></path></g></g></g><g fill-opacity="1" fill="#a61e2f"><g transform="translate(37.651612, 295.674724)"><g><path d="M 4.410156 0.304688 C 6.632812 0.304688 8.070312 -0.703125 8.070312 -2.445312 C 8.070312 -3.722656 7.300781 -4.472656 5.65625 -4.808594 L 3.882812 -5.175781 C 3.292969 -5.304688 2.957031 -5.578125 2.957031 -6.007812 C 2.957031 -6.535156 3.433594 -6.886719 4.1875 -6.886719 C 5.035156 -6.886719 5.640625 -6.457031 5.753906 -5.738281 L 7.78125 -5.816406 C 7.574219 -7.429688 6.214844 -8.453125 4.21875 -8.453125 C 2.1875 -8.453125 0.863281 -7.398438 0.863281 -5.738281 C 0.863281 -4.472656 1.644531 -3.644531 3.257812 -3.324219 L 4.890625 -3.003906 C 5.640625 -2.859375 5.976562 -2.621094 5.976562 -2.171875 C 5.976562 -1.550781 5.335938 -1.261719 4.488281 -1.261719 C 3.417969 -1.261719 2.859375 -1.726562 2.730469 -2.539062 L 0.671875 -2.460938 C 0.878906 -0.703125 2.15625 0.304688 4.410156 0.304688 Z M 4.410156 0.304688"></path></g></g></g><g fill-opacity="1" fill="#a61e2f"><g transform="translate(46.167509, 295.674724)"><g><path d="M 5.144531 -6.582031 L 5.144531 -8.246094 L 3.609375 -8.195312 L 3.609375 -10.785156 L 1.359375 -10.785156 L 1.359375 -8.214844 L 0.238281 -8.246094 L 0.238281 -6.582031 L 1.359375 -6.632812 L 1.359375 -2.316406 C 1.359375 -0.65625 2.011719 0 3.675781 0 L 5.144531 0 L 5.144531 -1.804688 L 4.394531 -1.804688 C 3.835938 -1.804688 3.609375 -2.027344 3.609375 -2.589844 L 3.609375 -6.632812 Z M 5.144531 -6.582031"></path></g></g></g><g fill-opacity="1" fill="#a61e2f"><g transform="translate(51.519901, 295.674724)"><g><path d="M 8.804688 -3.835938 C 8.804688 -6.726562 7.015625 -8.453125 4.570312 -8.453125 C 2.046875 -8.453125 0.511719 -6.566406 0.511719 -4.15625 C 0.511719 -1.628906 2.078125 0.273438 4.808594 0.273438 C 6.664062 0.273438 8.039062 -0.589844 8.597656 -2.378906 L 6.359375 -2.539062 C 6.085938 -1.820312 5.542969 -1.46875 4.761719 -1.46875 C 3.644531 -1.46875 2.925781 -2.203125 2.828125 -3.453125 L 8.804688 -3.453125 Z M 4.648438 -6.808594 C 5.671875 -6.808594 6.34375 -6.136719 6.472656 -4.984375 L 2.8125 -4.984375 C 2.925781 -6.121094 3.628906 -6.808594 4.648438 -6.808594 Z M 4.648438 -6.808594"></path></g></g></g><g fill-opacity="1" fill="#a61e2f"><g transform="translate(60.722824, 295.674724)"><g><path d="M 6.28125 -7.414062 C 5.71875 -8.101562 4.9375 -8.453125 3.882812 -8.453125 C 2.011719 -8.453125 0.511719 -6.855469 0.511719 -4.15625 C 0.511719 -1.503906 1.980469 0.273438 4.058594 0.273438 C 5.082031 0.273438 5.894531 -0.160156 6.457031 -1.023438 L 6.535156 0 L 8.53125 0 L 8.53125 -11.375 L 6.28125 -11.375 Z M 4.539062 -1.710938 C 3.453125 -1.710938 2.683594 -2.636719 2.683594 -4.15625 C 2.683594 -5.65625 3.453125 -6.582031 4.539062 -6.582031 C 5.625 -6.582031 6.390625 -5.640625 6.390625 -4.15625 C 6.390625 -2.667969 5.625 -1.710938 4.539062 -1.710938 Z M 4.539062 -1.710938"></path></g></g></g><g fill-opacity="1" fill="#a61e2f"><g transform="translate(70.101506, 295.674724)"><g></g></g></g><g fill-opacity="1" fill="#a61e2f"><g transform="translate(73.983975, 295.674724)"><g><path d="M 5.609375 -8.453125 C 4.554688 -8.453125 3.769531 -8.101562 3.210938 -7.414062 L 3.210938 -11.375 L 0.957031 -11.375 L 0.957031 0 L 2.957031 0 L 3.035156 -1.023438 C 3.59375 -0.160156 4.410156 0.273438 5.433594 0.273438 C 7.511719 0.273438 8.980469 -1.503906 8.980469 -4.15625 C 8.980469 -6.855469 7.476562 -8.453125 5.609375 -8.453125 Z M 4.953125 -1.710938 C 3.867188 -1.710938 3.101562 -2.667969 3.101562 -4.15625 C 3.101562 -5.640625 3.867188 -6.582031 4.953125 -6.582031 C 6.039062 -6.582031 6.808594 -5.65625 6.808594 -4.15625 C 6.808594 -2.636719 6.039062 -1.710938 4.953125 -1.710938 Z M 4.953125 -1.710938"></path></g></g></g><g fill-opacity="1" fill="#a61e2f"><g transform="translate(83.362657, 295.674724)"><g><path d="M 5.015625 -4.171875 C 4.875 -3.691406 4.699219 -3.117188 4.539062 -2.507812 C 4.363281 -3.117188 4.203125 -3.707031 4.042969 -4.1875 L 2.714844 -8.246094 L 0.238281 -8.246094 L 3.453125 0.414062 L 3.371094 0.640625 C 3.195312 1.132812 2.875 1.34375 2.203125 1.34375 L 1.117188 1.34375 L 1.117188 3.257812 L 3.003906 3.257812 C 4.171875 3.257812 4.875 2.90625 5.351562 1.46875 L 8.644531 -8.246094 L 6.246094 -8.246094 Z M 5.015625 -4.171875"></path></g></g></g><g clip-path="url(#290f6a5b7c)"><g transform="matrix(1, 0, 0, 1, 0.000000000000000028, 367)"><g clip-path="url(#30080db648)"><g clip-path="url(#c14bd122d5)"><g transform="matrix(1, 0, 0, 1, 0.000000000000000028, -0.000000000000056843)"><g clip-path="url(#7c6f0bf7e0)"><g clip-path="url(#2a94d6f6c0)"><path fill-rule="nonzero" fill-opacity="1" d="M 0.210938 0.472656 L 79.609375 0.472656 L 79.609375 56.3125 L 0.210938 56.3125 Z M 0.210938 0.472656" fill="#ffffff"></path></g></g></g></g><g clip-path="url(#5eadb12bef)"><g transform="matrix(0.363485, 0, 0, 0.360044, 12.742291, 0.472436)"><image preserveAspectRatio="xMidYMid meet" height="154" width="150" y="0" x="0"></image></g></g></g></g></g><g fill-opacity="1" fill="#cf3832"><g transform="translate(79.665866, 390.898573)"><g><path d="M 7.621094 0 L 4.921875 -7.820312 L 3.042969 -7.820312 L 0.273438 0 L 2 0 L 2.527344 -1.625 L 5.359375 -1.625 L 5.886719 0 Z M 3.285156 -3.929688 L 3.953125 -6.183594 L 4.613281 -3.929688 L 4.929688 -2.964844 L 2.964844 -2.964844 Z M 3.285156 -3.929688"></path></g></g></g><g fill-opacity="1" fill="#cf3832"><g transform="translate(87.955517, 390.898573)"><g><path d="M 5.390625 -4.800781 L 2.339844 -4.800781 L 2.339844 -7.820312 L 0.714844 -7.820312 L 0.714844 0 L 2.339844 0 L 2.339844 -3.347656 L 5.390625 -3.347656 L 5.390625 0 L 7.015625 0 L 7.015625 -7.820312 L 5.390625 -7.820312 Z M 5.390625 -4.800781"></path></g></g></g><g fill-opacity="1" fill="#cf3832"><g transform="translate(96.080475, 390.898573)"><g><path d="M 6.238281 -7.820312 L 0.714844 -7.820312 L 0.714844 0 L 2.339844 0 L 2.339844 -3.238281 L 5.742188 -3.238281 L 5.742188 -4.6875 L 2.339844 -4.6875 L 2.339844 -6.371094 L 6.238281 -6.371094 Z M 6.238281 -7.820312"></path></g></g></g><g fill-opacity="1" fill="#cf3832"><g transform="translate(102.767141, 390.898573)"><g></g></g></g><g fill-opacity="1" fill="#cf3832"><g transform="translate(105.9075, 390.898573)"><g><path d="M 2.339844 -7.820312 L 0.714844 -7.820312 L 0.714844 0 L 6.148438 0 L 6.148438 -1.449219 L 2.339844 -1.449219 Z M 2.339844 -7.820312"></path></g></g></g><g fill-opacity="1" fill="#cf3832"><g transform="translate(112.616123, 390.898573)"><g><path d="M 4.074219 0.253906 C 6.160156 0.253906 7.808594 -1.382812 7.808594 -3.921875 C 7.808594 -6.445312 6.160156 -8.007812 4.074219 -8.007812 C 1.988281 -8.007812 0.382812 -6.445312 0.382812 -3.921875 C 0.382812 -1.371094 1.988281 0.253906 4.074219 0.253906 Z M 4.074219 -1.152344 C 2.789062 -1.152344 2.007812 -2.261719 2.007812 -3.921875 C 2.007812 -5.511719 2.789062 -6.601562 4.074219 -6.601562 C 5.359375 -6.601562 6.183594 -5.523438 6.183594 -3.921875 C 6.183594 -2.261719 5.359375 -1.152344 4.074219 -1.152344 Z M 4.074219 -1.152344"></path></g></g></g><g fill-opacity="1" fill="#cf3832"><g transform="translate(121.202216, 390.898573)"><g><path d="M 7.433594 -4.226562 L 4.171875 -4.226562 L 4.171875 -2.867188 L 6.027344 -2.867188 C 5.863281 -1.722656 5.085938 -1.152344 4.117188 -1.152344 C 2.765625 -1.152344 2.007812 -2.261719 2.007812 -3.910156 C 2.007812 -5.511719 2.757812 -6.601562 4.117188 -6.601562 C 5.074219 -6.601562 5.644531 -6.074219 5.789062 -5.25 L 7.378906 -5.347656 C 7.117188 -6.996094 5.964844 -8.007812 4.03125 -8.007812 C 1.945312 -8.007812 0.382812 -6.445312 0.382812 -3.910156 C 0.382812 -1.371094 1.964844 0.253906 3.941406 0.253906 C 4.984375 0.253906 5.734375 -0.207031 6.128906 -0.835938 L 6.378906 0 L 7.433594 0 Z M 7.433594 -4.226562"></path></g></g></g><g fill-opacity="1" fill="#cf3832"><g transform="translate(129.744393, 390.898573)"><g><path d="M 4.074219 0.253906 C 6.160156 0.253906 7.808594 -1.382812 7.808594 -3.921875 C 7.808594 -6.445312 6.160156 -8.007812 4.074219 -8.007812 C 1.988281 -8.007812 0.382812 -6.445312 0.382812 -3.921875 C 0.382812 -1.371094 1.988281 0.253906 4.074219 0.253906 Z M 4.074219 -1.152344 C 2.789062 -1.152344 2.007812 -2.261719 2.007812 -3.921875 C 2.007812 -5.511719 2.789062 -6.601562 4.074219 -6.601562 C 5.359375 -6.601562 6.183594 -5.523438 6.183594 -3.921875 C 6.183594 -2.261719 5.359375 -1.152344 4.074219 -1.152344 Z M 4.074219 -1.152344"></path></g></g></g><g fill-opacity="1" fill="#cf3832"><g transform="translate(138.330486, 390.898573)"><g></g></g></g><g fill-opacity="1" fill="#cf3832"><g transform="translate(141.470845, 390.898573)"><g><path d="M 7.710938 -3.910156 L 7.335938 -2.339844 L 7.015625 -3.910156 L 6.160156 -7.820312 L 4.558594 -7.820312 L 3.699219 -3.910156 L 3.382812 -2.339844 L 3.007812 -3.910156 L 2 -7.820312 L 0.273438 -7.820312 L 2.558594 0 L 4.140625 0 L 5.007812 -3.867188 L 5.347656 -5.414062 L 5.675781 -3.867188 L 6.546875 0 L 8.105469 0 L 10.390625 -7.820312 L 8.71875 -7.820312 Z M 7.710938 -3.910156"></path></g></g></g><g fill-opacity="1" fill="#cf3832"><g transform="translate(152.527279, 390.898573)"><g><path d="M 2.339844 0 L 2.339844 -7.820312 L 0.714844 -7.820312 L 0.714844 0 Z M 2.339844 0"></path></g></g></g><g fill-opacity="1" fill="#cf3832"><g transform="translate(155.975053, 390.898573)"><g><path d="M 0.21875 -7.820312 L 0.21875 -6.371094 L 2.570312 -6.371094 L 2.570312 0 L 4.195312 0 L 4.195312 -6.371094 L 6.535156 -6.371094 L 6.535156 -7.820312 Z M 0.21875 -7.820312"></path></g></g></g><g fill-opacity="1" fill="#cf3832"><g transform="translate(163.122853, 390.898573)"><g><path d="M 5.390625 -4.800781 L 2.339844 -4.800781 L 2.339844 -7.820312 L 0.714844 -7.820312 L 0.714844 0 L 2.339844 0 L 2.339844 -3.347656 L 5.390625 -3.347656 L 5.390625 0 L 7.015625 0 L 7.015625 -7.820312 L 5.390625 -7.820312 Z M 5.390625 -4.800781"></path></g></g></g><g fill-opacity="1" fill="#cf3832"><g transform="translate(171.247812, 390.898573)"><g></g></g></g><g fill-opacity="1" fill="#cf3832"><g transform="translate(174.388171, 390.898573)"><g><path d="M 7.710938 -3.910156 L 7.335938 -2.339844 L 7.015625 -3.910156 L 6.160156 -7.820312 L 4.558594 -7.820312 L 3.699219 -3.910156 L 3.382812 -2.339844 L 3.007812 -3.910156 L 2 -7.820312 L 0.273438 -7.820312 L 2.558594 0 L 4.140625 0 L 5.007812 -3.867188 L 5.347656 -5.414062 L 5.675781 -3.867188 L 6.546875 0 L 8.105469 0 L 10.390625 -7.820312 L 8.71875 -7.820312 Z M 7.710938 -3.910156"></path></g></g></g><g fill-opacity="1" fill="#cf3832"><g transform="translate(185.444605, 390.898573)"><g><path d="M 5.390625 -4.800781 L 2.339844 -4.800781 L 2.339844 -7.820312 L 0.714844 -7.820312 L 0.714844 0 L 2.339844 0 L 2.339844 -3.347656 L 5.390625 -3.347656 L 5.390625 0 L 7.015625 0 L 7.015625 -7.820312 L 5.390625 -7.820312 Z M 5.390625 -4.800781"></path></g></g></g><g fill-opacity="1" fill="#cf3832"><g transform="translate(193.569564, 390.898573)"><g><path d="M 2.339844 0 L 2.339844 -7.820312 L 0.714844 -7.820312 L 0.714844 0 Z M 2.339844 0"></path></g></g></g><g fill-opacity="1" fill="#cf3832"><g transform="translate(197.017338, 390.898573)"><g><path d="M 0.21875 -7.820312 L 0.21875 -6.371094 L 2.570312 -6.371094 L 2.570312 0 L 4.195312 0 L 4.195312 -6.371094 L 6.535156 -6.371094 L 6.535156 -7.820312 Z M 0.21875 -7.820312"></path></g></g></g><g fill-opacity="1" fill="#cf3832"><g transform="translate(204.165138, 390.898573)"><g><path d="M 2.339844 -3.339844 L 5.996094 -3.339844 L 5.996094 -4.789062 L 2.339844 -4.789062 L 2.339844 -6.371094 L 6.402344 -6.371094 L 6.402344 -7.820312 L 0.714844 -7.820312 L 0.714844 0 L 6.511719 0 L 6.511719 -1.449219 L 2.339844 -1.449219 Z M 2.339844 -3.339844"></path></g></g></g><g fill-opacity="1" fill="#cf3832"><g transform="translate(211.510562, 390.898573)"><g></g></g></g><g fill-opacity="1" fill="#cf3832"><g transform="translate(214.650921, 390.898573)"><g><path d="M 5.414062 -4.25 C 6.261719 -4.492188 6.6875 -5.09375 6.6875 -5.910156 C 6.6875 -7.105469 5.765625 -7.820312 4.347656 -7.820312 L 0.714844 -7.820312 L 0.714844 0 L 4.371094 0 C 6.074219 0 6.929688 -1.054688 6.929688 -2.296875 C 6.929688 -3.171875 6.511719 -3.964844 5.414062 -4.25 Z M 4.0625 -6.5 C 4.789062 -6.5 5.09375 -6.160156 5.09375 -5.667969 C 5.09375 -5.183594 4.789062 -4.800781 3.996094 -4.800781 L 2.339844 -4.800781 L 2.339844 -6.5 Z M 2.339844 -1.371094 L 2.339844 -3.480469 L 4.164062 -3.480469 C 4.910156 -3.480469 5.335938 -3.109375 5.335938 -2.449219 C 5.335938 -1.824219 4.953125 -1.371094 4.085938 -1.371094 Z M 2.339844 -1.371094"></path></g></g></g><g fill-opacity="1" fill="#cf3832"><g transform="translate(222.479438, 390.898573)"><g><path d="M 7.621094 0 L 4.921875 -7.820312 L 3.042969 -7.820312 L 0.273438 0 L 2 0 L 2.527344 -1.625 L 5.359375 -1.625 L 5.886719 0 Z M 3.285156 -3.929688 L 3.953125 -6.183594 L 4.613281 -3.929688 L 4.929688 -2.964844 L 2.964844 -2.964844 Z M 3.285156 -3.929688"></path></g></g></g><g fill-opacity="1" fill="#cf3832"><g transform="translate(230.769089, 390.898573)"><g><path d="M 4.019531 0.253906 C 5.917969 0.253906 7.191406 -0.769531 7.324219 -2.558594 L 5.789062 -2.558594 C 5.667969 -1.8125 5.160156 -1.152344 4.117188 -1.152344 C 2.757812 -1.152344 2.007812 -2.261719 2.007812 -3.910156 C 2.007812 -5.503906 2.757812 -6.589844 4.117188 -6.589844 C 5.085938 -6.589844 5.65625 -6.050781 5.789062 -5.226562 L 7.335938 -5.226562 C 7.191406 -6.941406 5.953125 -7.996094 4.042969 -7.996094 C 1.953125 -7.996094 0.382812 -6.433594 0.382812 -3.910156 C 0.382812 -1.371094 1.933594 0.253906 4.019531 0.253906 Z M 4.019531 0.253906"></path></g></g></g><g fill-opacity="1" fill="#cf3832"><g transform="translate(238.773271, 390.898573)"><g><path d="M 7.183594 -7.820312 L 5.105469 -7.820312 L 3.230469 -5.777344 L 2.339844 -4.800781 L 2.339844 -7.820312 L 0.714844 -7.820312 L 0.714844 0 L 2.339844 0 L 2.339844 -2.867188 L 3.074219 -3.589844 L 5.535156 0 L 7.542969 0 L 4.21875 -4.679688 Z M 7.183594 -7.820312"></path></g></g></g><g fill-opacity="1" fill="#cf3832"><g transform="translate(246.76648, 390.898573)"><g><path d="M 7.433594 -4.226562 L 4.171875 -4.226562 L 4.171875 -2.867188 L 6.027344 -2.867188 C 5.863281 -1.722656 5.085938 -1.152344 4.117188 -1.152344 C 2.765625 -1.152344 2.007812 -2.261719 2.007812 -3.910156 C 2.007812 -5.511719 2.757812 -6.601562 4.117188 -6.601562 C 5.074219 -6.601562 5.644531 -6.074219 5.789062 -5.25 L 7.378906 -5.347656 C 7.117188 -6.996094 5.964844 -8.007812 4.03125 -8.007812 C 1.945312 -8.007812 0.382812 -6.445312 0.382812 -3.910156 C 0.382812 -1.371094 1.964844 0.253906 3.941406 0.253906 C 4.984375 0.253906 5.734375 -0.207031 6.128906 -0.835938 L 6.378906 0 L 7.433594 0 Z M 7.433594 -4.226562"></path></g></g></g><g fill-opacity="1" fill="#cf3832"><g transform="translate(255.308657, 390.898573)"><g><path d="M 5.335938 -3.757812 C 6.335938 -4.019531 6.832031 -4.667969 6.832031 -5.667969 C 6.832031 -6.777344 6.226562 -7.820312 4.359375 -7.820312 L 0.714844 -7.820312 L 0.714844 0 L 2.339844 0 L 2.339844 -3.03125 L 3.777344 -3.03125 C 4.625 -3.03125 4.898438 -2.679688 4.964844 -2.007812 L 5.152344 0 L 6.820312 0 L 6.5 -2.480469 C 6.433594 -3 6.25 -3.570312 5.335938 -3.757812 Z M 2.339844 -6.457031 L 4.117188 -6.457031 C 4.921875 -6.457031 5.238281 -6.019531 5.238281 -5.445312 C 5.238281 -4.84375 4.875 -4.347656 3.898438 -4.347656 L 2.339844 -4.347656 Z M 2.339844 -6.457031"></path></g></g></g><g fill-opacity="1" fill="#cf3832"><g transform="translate(263.137173, 390.898573)"><g><path d="M 4.074219 0.253906 C 6.160156 0.253906 7.808594 -1.382812 7.808594 -3.921875 C 7.808594 -6.445312 6.160156 -8.007812 4.074219 -8.007812 C 1.988281 -8.007812 0.382812 -6.445312 0.382812 -3.921875 C 0.382812 -1.371094 1.988281 0.253906 4.074219 0.253906 Z M 4.074219 -1.152344 C 2.789062 -1.152344 2.007812 -2.261719 2.007812 -3.921875 C 2.007812 -5.511719 2.789062 -6.601562 4.074219 -6.601562 C 5.359375 -6.601562 6.183594 -5.523438 6.183594 -3.921875 C 6.183594 -2.261719 5.359375 -1.152344 4.074219 -1.152344 Z M 4.074219 -1.152344"></path></g></g></g><g fill-opacity="1" fill="#cf3832"><g transform="translate(271.723266, 390.898573)"><g><path d="M 3.746094 0.253906 C 5.65625 0.253906 6.785156 -0.691406 6.785156 -2.40625 L 6.785156 -7.820312 L 5.160156 -7.820312 L 5.160156 -2.382812 C 5.160156 -1.546875 4.710938 -1.152344 3.757812 -1.152344 C 2.800781 -1.152344 2.339844 -1.546875 2.339844 -2.382812 L 2.339844 -7.820312 L 0.714844 -7.820312 L 0.714844 -2.40625 C 0.714844 -0.691406 1.835938 0.253906 3.746094 0.253906 Z M 3.746094 0.253906"></path></g></g></g><g fill-opacity="1" fill="#cf3832"><g transform="translate(279.617669, 390.898573)"><g><path d="M 5.402344 -4.394531 C 5.402344 -3.84375 5.414062 -3.285156 5.425781 -2.734375 C 5.171875 -3.171875 4.910156 -3.601562 4.632812 -4.042969 L 2.304688 -7.820312 L 0.714844 -7.820312 L 0.714844 0 L 2.339844 0 L 2.339844 -3.425781 C 2.339844 -3.964844 2.339844 -4.523438 2.328125 -5.074219 C 2.601562 -4.613281 2.878906 -4.152344 3.164062 -3.691406 L 5.4375 0 L 7.027344 0 L 7.027344 -7.820312 L 5.402344 -7.820312 Z M 5.402344 -4.394531"></path></g></g></g><g fill-opacity="1" fill="#cf3832"><g transform="translate(287.753601, 390.898573)"><g><path d="M 3.261719 -7.820312 L 0.714844 -7.820312 L 0.714844 0 L 3.480469 0 C 6.140625 0 7.304688 -1.625 7.304688 -3.964844 C 7.304688 -6.304688 6.195312 -7.820312 3.261719 -7.820312 Z M 2.339844 -1.371094 L 2.339844 -6.5 L 3.109375 -6.5 C 5.105469 -6.5 5.675781 -5.601562 5.675781 -3.910156 C 5.675781 -2.207031 5.050781 -1.371094 3.328125 -1.371094 Z M 2.339844 -1.371094"></path></g></g></g><g fill-opacity="1" fill="#cf3832"><g transform="translate(79.665866, 405.880925)"><g><path d="M 6.238281 -7.820312 L 0.714844 -7.820312 L 0.714844 0 L 2.339844 0 L 2.339844 -3.238281 L 5.742188 -3.238281 L 5.742188 -4.6875 L 2.339844 -4.6875 L 2.339844 -6.371094 L 6.238281 -6.371094 Z M 6.238281 -7.820312"></path></g></g></g><g fill-opacity="1" fill="#cf3832"><g transform="translate(86.352531, 405.880925)"><g><path d="M 4.074219 0.253906 C 6.160156 0.253906 7.808594 -1.382812 7.808594 -3.921875 C 7.808594 -6.445312 6.160156 -8.007812 4.074219 -8.007812 C 1.988281 -8.007812 0.382812 -6.445312 0.382812 -3.921875 C 0.382812 -1.371094 1.988281 0.253906 4.074219 0.253906 Z M 4.074219 -1.152344 C 2.789062 -1.152344 2.007812 -2.261719 2.007812 -3.921875 C 2.007812 -5.511719 2.789062 -6.601562 4.074219 -6.601562 C 5.359375 -6.601562 6.183594 -5.523438 6.183594 -3.921875 C 6.183594 -2.261719 5.359375 -1.152344 4.074219 -1.152344 Z M 4.074219 -1.152344"></path></g></g></g><g fill-opacity="1" fill="#cf3832"><g transform="translate(94.938624, 405.880925)"><g><path d="M 5.335938 -3.757812 C 6.335938 -4.019531 6.832031 -4.667969 6.832031 -5.667969 C 6.832031 -6.777344 6.226562 -7.820312 4.359375 -7.820312 L 0.714844 -7.820312 L 0.714844 0 L 2.339844 0 L 2.339844 -3.03125 L 3.777344 -3.03125 C 4.625 -3.03125 4.898438 -2.679688 4.964844 -2.007812 L 5.152344 0 L 6.820312 0 L 6.5 -2.480469 C 6.433594 -3 6.25 -3.570312 5.335938 -3.757812 Z M 2.339844 -6.457031 L 4.117188 -6.457031 C 4.921875 -6.457031 5.238281 -6.019531 5.238281 -5.445312 C 5.238281 -4.84375 4.875 -4.347656 3.898438 -4.347656 L 2.339844 -4.347656 Z M 2.339844 -6.457031"></path></g></g></g><g fill-opacity="1" fill="#cf3832"><g transform="translate(102.767141, 405.880925)"><g></g></g></g><g fill-opacity="1" fill="#cf3832"><g transform="translate(105.9075, 405.880925)"><g><path d="M 4.074219 0.253906 C 6.160156 0.253906 7.808594 -1.382812 7.808594 -3.921875 C 7.808594 -6.445312 6.160156 -8.007812 4.074219 -8.007812 C 1.988281 -8.007812 0.382812 -6.445312 0.382812 -3.921875 C 0.382812 -1.371094 1.988281 0.253906 4.074219 0.253906 Z M 4.074219 -1.152344 C 2.789062 -1.152344 2.007812 -2.261719 2.007812 -3.921875 C 2.007812 -5.511719 2.789062 -6.601562 4.074219 -6.601562 C 5.359375 -6.601562 6.183594 -5.523438 6.183594 -3.921875 C 6.183594 -2.261719 5.359375 -1.152344 4.074219 -1.152344 Z M 4.074219 -1.152344"></path></g></g></g><g fill-opacity="1" fill="#cf3832"><g transform="translate(114.493593, 405.880925)"><g><path d="M 3.746094 0.253906 C 5.65625 0.253906 6.785156 -0.691406 6.785156 -2.40625 L 6.785156 -7.820312 L 5.160156 -7.820312 L 5.160156 -2.382812 C 5.160156 -1.546875 4.710938 -1.152344 3.757812 -1.152344 C 2.800781 -1.152344 2.339844 -1.546875 2.339844 -2.382812 L 2.339844 -7.820312 L 0.714844 -7.820312 L 0.714844 -2.40625 C 0.714844 -0.691406 1.835938 0.253906 3.746094 0.253906 Z M 3.746094 0.253906"></path></g></g></g><g fill-opacity="1" fill="#cf3832"><g transform="translate(122.387984, 405.880925)"><g><path d="M 5.335938 -3.757812 C 6.335938 -4.019531 6.832031 -4.667969 6.832031 -5.667969 C 6.832031 -6.777344 6.226562 -7.820312 4.359375 -7.820312 L 0.714844 -7.820312 L 0.714844 0 L 2.339844 0 L 2.339844 -3.03125 L 3.777344 -3.03125 C 4.625 -3.03125 4.898438 -2.679688 4.964844 -2.007812 L 5.152344 0 L 6.820312 0 L 6.5 -2.480469 C 6.433594 -3 6.25 -3.570312 5.335938 -3.757812 Z M 2.339844 -6.457031 L 4.117188 -6.457031 C 4.921875 -6.457031 5.238281 -6.019531 5.238281 -5.445312 C 5.238281 -4.84375 4.875 -4.347656 3.898438 -4.347656 L 2.339844 -4.347656 Z M 2.339844 -6.457031"></path></g></g></g><g fill-opacity="1" fill="#cf3832"><g transform="translate(130.216501, 405.880925)"><g></g></g></g><g fill-opacity="1" fill="#cf3832"><g transform="translate(133.35686, 405.880925)"><g><path d="M 5.402344 -4.394531 C 5.402344 -3.84375 5.414062 -3.285156 5.425781 -2.734375 C 5.171875 -3.171875 4.910156 -3.601562 4.632812 -4.042969 L 2.304688 -7.820312 L 0.714844 -7.820312 L 0.714844 0 L 2.339844 0 L 2.339844 -3.425781 C 2.339844 -3.964844 2.339844 -4.523438 2.328125 -5.074219 C 2.601562 -4.613281 2.878906 -4.152344 3.164062 -3.691406 L 5.4375 0 L 7.027344 0 L 7.027344 -7.820312 L 5.402344 -7.820312 Z M 5.402344 -4.394531"></path></g></g></g><g fill-opacity="1" fill="#cf3832"><g transform="translate(141.492803, 405.880925)"><g><path d="M 2.339844 -3.339844 L 5.996094 -3.339844 L 5.996094 -4.789062 L 2.339844 -4.789062 L 2.339844 -6.371094 L 6.402344 -6.371094 L 6.402344 -7.820312 L 0.714844 -7.820312 L 0.714844 0 L 6.511719 0 L 6.511719 -1.449219 L 2.339844 -1.449219 Z M 2.339844 -3.339844"></path></g></g></g><g fill-opacity="1" fill="#cf3832"><g transform="translate(148.838227, 405.880925)"><g><path d="M 0.21875 -7.820312 L 0.21875 -6.371094 L 2.570312 -6.371094 L 2.570312 0 L 4.195312 0 L 4.195312 -6.371094 L 6.535156 -6.371094 L 6.535156 -7.820312 Z M 0.21875 -7.820312"></path></g></g></g><g fill-opacity="1" fill="#cf3832"><g transform="translate(155.986027, 405.880925)"><g><path d="M 7.710938 -3.910156 L 7.335938 -2.339844 L 7.015625 -3.910156 L 6.160156 -7.820312 L 4.558594 -7.820312 L 3.699219 -3.910156 L 3.382812 -2.339844 L 3.007812 -3.910156 L 2 -7.820312 L 0.273438 -7.820312 L 2.558594 0 L 4.140625 0 L 5.007812 -3.867188 L 5.347656 -5.414062 L 5.675781 -3.867188 L 6.546875 0 L 8.105469 0 L 10.390625 -7.820312 L 8.71875 -7.820312 Z M 7.710938 -3.910156"></path></g></g></g><g fill-opacity="1" fill="#cf3832"><g transform="translate(167.042461, 405.880925)"><g><path d="M 4.074219 0.253906 C 6.160156 0.253906 7.808594 -1.382812 7.808594 -3.921875 C 7.808594 -6.445312 6.160156 -8.007812 4.074219 -8.007812 C 1.988281 -8.007812 0.382812 -6.445312 0.382812 -3.921875 C 0.382812 -1.371094 1.988281 0.253906 4.074219 0.253906 Z M 4.074219 -1.152344 C 2.789062 -1.152344 2.007812 -2.261719 2.007812 -3.921875 C 2.007812 -5.511719 2.789062 -6.601562 4.074219 -6.601562 C 5.359375 -6.601562 6.183594 -5.523438 6.183594 -3.921875 C 6.183594 -2.261719 5.359375 -1.152344 4.074219 -1.152344 Z M 4.074219 -1.152344"></path></g></g></g><g fill-opacity="1" fill="#cf3832"><g transform="translate(175.628554, 405.880925)"><g><path d="M 5.335938 -3.757812 C 6.335938 -4.019531 6.832031 -4.667969 6.832031 -5.667969 C 6.832031 -6.777344 6.226562 -7.820312 4.359375 -7.820312 L 0.714844 -7.820312 L 0.714844 0 L 2.339844 0 L 2.339844 -3.03125 L 3.777344 -3.03125 C 4.625 -3.03125 4.898438 -2.679688 4.964844 -2.007812 L 5.152344 0 L 6.820312 0 L 6.5 -2.480469 C 6.433594 -3 6.25 -3.570312 5.335938 -3.757812 Z M 2.339844 -6.457031 L 4.117188 -6.457031 C 4.921875 -6.457031 5.238281 -6.019531 5.238281 -5.445312 C 5.238281 -4.84375 4.875 -4.347656 3.898438 -4.347656 L 2.339844 -4.347656 Z M 2.339844 -6.457031"></path></g></g></g><g fill-opacity="1" fill="#cf3832"><g transform="translate(183.457071, 405.880925)"><g><path d="M 7.183594 -7.820312 L 5.105469 -7.820312 L 3.230469 -5.777344 L 2.339844 -4.800781 L 2.339844 -7.820312 L 0.714844 -7.820312 L 0.714844 0 L 2.339844 0 L 2.339844 -2.867188 L 3.074219 -3.589844 L 5.535156 0 L 7.542969 0 L 4.21875 -4.679688 Z M 7.183594 -7.820312"></path></g></g></g><g fill-opacity="1" fill="#cf3832"><g transform="translate(191.45028, 405.880925)"><g></g></g></g><g fill-opacity="1" fill="#cf3832"><g transform="translate(194.590639, 405.880925)"><g><path d="M 3.820312 -7.820312 L 0.714844 -7.820312 L 0.714844 0 L 2.339844 0 L 2.339844 -2.722656 L 3.679688 -2.722656 C 5.558594 -2.722656 6.546875 -3.710938 6.546875 -5.304688 C 6.546875 -6.875 5.511719 -7.820312 3.820312 -7.820312 Z M 2.339844 -4.097656 L 2.339844 -6.445312 L 3.699219 -6.445312 C 4.449219 -6.445312 4.976562 -6.050781 4.976562 -5.28125 C 4.976562 -4.535156 4.492188 -4.097656 3.535156 -4.097656 Z M 2.339844 -4.097656"></path></g></g></g><g fill-opacity="1" fill="#cf3832"><g transform="translate(201.694522, 405.880925)"><g><path d="M 7.621094 0 L 4.921875 -7.820312 L 3.042969 -7.820312 L 0.273438 0 L 2 0 L 2.527344 -1.625 L 5.359375 -1.625 L 5.886719 0 Z M 3.285156 -3.929688 L 3.953125 -6.183594 L 4.613281 -3.929688 L 4.929688 -2.964844 L 2.964844 -2.964844 Z M 3.285156 -3.929688"></path></g></g></g><g fill-opacity="1" fill="#cf3832"><g transform="translate(209.984173, 405.880925)"><g><path d="M 7.433594 -4.226562 L 4.171875 -4.226562 L 4.171875 -2.867188 L 6.027344 -2.867188 C 5.863281 -1.722656 5.085938 -1.152344 4.117188 -1.152344 C 2.765625 -1.152344 2.007812 -2.261719 2.007812 -3.910156 C 2.007812 -5.511719 2.757812 -6.601562 4.117188 -6.601562 C 5.074219 -6.601562 5.644531 -6.074219 5.789062 -5.25 L 7.378906 -5.347656 C 7.117188 -6.996094 5.964844 -8.007812 4.03125 -8.007812 C 1.945312 -8.007812 0.382812 -6.445312 0.382812 -3.910156 C 0.382812 -1.371094 1.964844 0.253906 3.941406 0.253906 C 4.984375 0.253906 5.734375 -0.207031 6.128906 -0.835938 L 6.378906 0 L 7.433594 0 Z M 7.433594 -4.226562"></path></g></g></g><g fill-opacity="1" fill="#cf3832"><g transform="translate(218.52635, 405.880925)"><g><path d="M 2.339844 -3.339844 L 5.996094 -3.339844 L 5.996094 -4.789062 L 2.339844 -4.789062 L 2.339844 -6.371094 L 6.402344 -6.371094 L 6.402344 -7.820312 L 0.714844 -7.820312 L 0.714844 0 L 6.511719 0 L 6.511719 -1.449219 L 2.339844 -1.449219 Z M 2.339844 -3.339844"></path></g></g></g></svg>